<?xml version="1.0" encoding="UTF-8"?>
<svg width="800" height="800" version="1.1" viewBox="0 0 800 800" xmlns="http://www.w3.org/2000/svg">
 <g fill="none" stroke="#000" stroke-width="20">
  <path d="m400 100c-165.69 0-300 134.31-300 300s134.31 300 300 300 300-134.31 300-300-134.31-300-300-300zm0 50c137.57 0 250 112.43 250 250s-112.43 250-250 250-250-112.43-250-250 112.43-250 250-250z"/>
  <path d="m400 200c-110.46 0-200 89.543-200 200s89.543 200 200 200 200-89.543 200-200-89.543-200-200-200zm0 50c82.843 0 150 67.157 150 150s-67.157 150-150 150-150-67.157-150-150 67.157-150 150-150z"/>
  <path d="m400 300c-55.228 0-100 44.772-100 100s44.772 100 100 100 100-44.772 100-100-44.772-100-100-100z"/>
 </g>
</svg>